# xmcd
# Track frame offsets:
# 150
# 12509
# 25244
# 36141
# 48163
# 60860
# 77844
# 89729
# 101126
# 109710
# 118045
# 134154
# 150451
# 163123
# 173658
# 191873
#
# Disc length: 2734 seconds
# Revision: 0
# Processed by: cddbd v1.4PL0 Copyright (c) Steve Scherf et al.
# Submitted via: VisiTrax 2.9.5.181 - For more info visit www.synapsa.com
#
DISCID=d40aac10
DTITLE=Johnny Cash - Live
DYEAR=2003
DGENRE=Country
TTITLE0=Folsom Prisen blues
TTITLE1=Peace in the vally
TTITLE2=Rock island line
TTITLE3=I still miss someone
TTITLE4=Ring of fire
TTITLE5=Sunday morning coming down
TTITLE6=Highwayman
TTITLE7=Big river
TTITLE8=I got strpes
TTITLE9=Get rhythm
TTITLE10=A boy namned Sue
TTITLE11=City of New Orleans
TTITLE12=The long black vell
TTITLE13=If I where a carpenter
TTITLE14=Orange blossem special
TTITLE15=Iwalk the line
EXTD=
EXTT0=
EXTT1=
EXTT2=
EXTT3=
EXTT4=
EXTT5=
EXTT6=
EXTT7=
EXTT8=
EXTT9=
EXTT10=
EXTT11=
EXTT12=
EXTT13=
EXTT14=
EXTT15=
PLAYORDER=
